<svg version="1" xmlns="http://www.w3.org/2000/svg" width="1144" height="1144" viewBox="0 0 858.000000 858.000000"><path d="M461.5 80.4c-14.8 4-248.4 75.4-255.8 78.2-24 9.2-43.4 28.5-52.2 51.8-1.3 3.6-15.8 68-32.1 143.3L91.6 490.5V505c-.1 12.1.3 15.9 2.2 23 2.8 10.5 8.6 22.4 15.1 31 5.2 6.9 201.3 195.6 211.5 203.5 7.9 6.1 22.2 13 32.1 15.6 11 2.8 25.9 3.4 36.1 1.6 7.5-1.4 245.7-73.5 262.1-79.4 24.1-8.6 43.9-28.1 53.2-52.3 3.5-9 60.8-273 62.2-286.3 1.5-15-1.2-31.6-7.6-45.4-7.6-16.4-7.7-16.6-116.1-120.5-56.2-53.9-104.9-99.8-108.1-102-8.1-5.6-14-8.4-24.6-12-8.3-2.8-10.7-3.1-24.2-3.4-13.4-.4-16-.2-24 2zm42.6 36.5c4.1 1.7 9.2 4.6 11.5 6.4 3.8 3 189 180.2 200.1 191.4 6 6.1 11.4 15.3 13.9 23.8 4 13.6 4.4 11.2-27.4 158-16 73.7-30 136.6-31.2 139.7-4.3 11.5-15 23.1-26.5 28.7-3.3 1.6-62.9 20.3-132.5 41.6-95.5 29.1-128.2 38.7-133.5 39.1-12.6 1-26.6-3.2-37.1-11.2-2.8-2.1-49.4-46.4-103.5-98.3-69.4-66.5-99.6-96.1-102.5-100.5-6.2-9.1-8.6-16.4-9.1-27.6-.5-9.4-.2-10.5 29.2-146.4 26.9-124.1 30-137.7 33.2-144 4.5-8.9 14.5-19.2 22.9-23.4 8.7-4.4 257.1-80.3 265.4-81.1 9.7-.9 18.9.4 27.1 3.8z"/><path d="M344.5 255.2c-.4 1.3-75.5 354.6-75.5 355.4 0 .2 48.6.4 108 .4h108l.5-2.3c1-4.2 15.5-72.9 15.5-73.3 0-.2-27.7-.4-61.6-.4-58.1 0-61.5-.1-61-1.8.6-1.9 14.6-67.8 14.6-68.7 0-.3 25.1-.6 55.7-.7l55.6-.3 7.7-36 7.6-36-55.3-.3c-43.3-.2-55.3-.5-55.2-1.5 0-.6 2.8-14.3 6.3-30.2l6.2-29 59.4-.5 59.3-.5 7.8-36.5c4.3-20.1 7.8-37.1 7.9-37.8 0-1.8-210.9-1.8-211.5 0z"/></svg>